<svg width="59" height="25" viewBox="0 0 59 25" fill="none" xmlns="http://www.w3.org/2000/svg">
<path d="M10.6803 3.5273C9.99521 4.33796 8.89911 4.97735 7.80301 4.88601C7.666 3.78991 8.20263 2.6253 8.8306 1.90599C9.51566 1.0725 10.7145 0.478776 11.685 0.433105C11.7992 1.57488 11.3539 2.69381 10.6803 3.5273ZM11.6736 5.10294C10.0865 5.0116 8.72784 6.00494 7.97427 6.00494C7.20929 6.00494 6.0561 5.14861 4.80015 5.17145C3.16742 5.19429 1.64887 6.11912 0.815377 7.592C-0.897277 10.5378 0.370087 14.8993 2.02565 17.297C2.83631 18.4845 3.80681 19.7861 5.0856 19.7404C6.29587 19.6948 6.77542 18.9526 8.23688 18.9526C9.70976 18.9526 10.1322 19.7404 11.411 19.7176C12.7355 19.6948 13.5689 18.5302 14.3796 17.3427C15.3044 15.9954 15.6812 14.6824 15.7041 14.6139C15.6812 14.5911 13.1465 13.6205 13.1237 10.6976C13.1008 8.25423 15.1218 7.08962 15.2131 7.02112C14.0713 5.3313 12.2902 5.14861 11.6736 5.10294ZM20.842 1.79181V19.592H23.6051V13.5064H27.43C30.9238 13.5064 33.3787 11.1087 33.3787 7.63767C33.3787 4.16669 30.9695 1.79181 27.5214 1.79181H20.842ZM23.6051 4.12102H26.7906C29.1884 4.12102 30.5585 5.3998 30.5585 7.64909C30.5585 9.89838 29.1884 11.1886 26.7792 11.1886H23.6051V4.12102ZM38.4253 19.729C40.1608 19.729 41.7707 18.8499 42.5014 17.4569H42.5585V19.592H45.116V10.7319C45.116 8.16289 43.0609 6.50732 39.8982 6.50732C36.9638 6.50732 34.7944 8.18572 34.7145 10.4921H37.2036C37.4091 9.396 38.4253 8.67668 39.8182 8.67668C41.5081 8.67668 42.4557 9.4645 42.4557 10.9146V11.8965L39.0076 12.102C35.7992 12.2961 34.0637 13.6091 34.0637 15.8927C34.0637 18.199 35.8563 19.729 38.4253 19.729ZM39.1674 17.6167C37.6945 17.6167 36.7583 16.9088 36.7583 15.8242C36.7583 14.7052 37.6603 14.0544 39.3844 13.9517L42.4557 13.7576V14.7623C42.4557 16.4293 41.0399 17.6167 39.1674 17.6167ZM48.5299 24.4331C51.2245 24.4331 52.4919 23.4055 53.5994 20.2885L58.4519 6.67859H55.6432L52.3891 17.1943H52.332L49.078 6.67859H46.1893L50.8706 19.6377L50.6194 20.4255C50.1969 21.7614 49.5119 22.2752 48.2902 22.2752C48.0732 22.2752 47.6508 22.2523 47.4795 22.2295V24.3646C47.6394 24.4103 48.3244 24.4331 48.5299 24.4331Z" fill="black"/>
</svg>
