<svg width="43" height="40" viewBox="0 0 43 40" fill="none" xmlns="http://www.w3.org/2000/svg">
<path id="Star 1" d="M19.2884 2.23758C20.4017 0.0554831 23.5196 0.0554824 24.6329 2.23758L28.8471 10.4971C29.2916 11.3685 30.1331 11.9684 31.1018 12.1045L40.3565 13.4053C42.8481 13.7555 43.8276 16.8328 41.997 18.5589L35.4294 24.7513C34.6938 25.4449 34.3571 26.4624 34.5336 27.4578L36.1013 36.2995C36.5335 38.737 33.9941 40.6195 31.7875 39.4973L23.3206 35.1916C22.466 34.757 21.4553 34.757 20.6008 35.1916L12.1339 39.4973C9.92728 40.6195 7.38786 38.737 7.82005 36.2995L9.38778 27.4578C9.56429 26.4624 9.22751 25.4449 8.49192 24.7513L1.92434 18.5589C0.0936987 16.8328 1.07326 13.7555 3.56485 13.4053L12.8196 12.1045C13.7882 11.9684 14.6297 11.3685 15.0743 10.4971L19.2884 2.23758Z" fill="#FFD80D"/>
</svg>
